<svg width="114" height="199" viewBox="0 0 114 199" fill="none" xmlns="http://www.w3.org/2000/svg">
<rect x="63.1572" width="120.802" height="12.8855" transform="rotate(90 63.1572 0)" fill="white"/>
<mask id="path-2-inside-1_307_1283" fill="white">
<path d="M56.9473 16.1069L113.894 73.0535L56.9473 130L0.000716696 73.0535L56.9473 16.1069Z"/>
</mask>
<path d="M56.9473 130L47.8358 139.111L56.9473 148.223L66.0587 139.111L56.9473 130ZM113.894 73.0535L104.782 63.942L47.8358 120.889L56.9473 130L66.0587 139.111L123.005 82.1649L113.894 73.0535ZM56.9473 130L66.0587 120.889L9.11216 63.942L0.000716696 73.0535L-9.11073 82.1649L47.8358 139.111L56.9473 130Z" fill="white" mask="url(#path-2-inside-1_307_1283)"/>
<mask id="path-4-inside-2_307_1283" fill="white">
<path d="M56.9473 85L113.894 141.947L56.9473 198.893L0.000716696 141.947L56.9473 85Z"/>
</mask>
<path d="M56.9473 198.893L47.8358 208.005L56.9473 217.116L66.0587 208.005L56.9473 198.893ZM113.894 141.947L104.782 132.835L47.8358 189.782L56.9473 198.893L66.0587 208.005L123.005 151.058L113.894 141.947ZM56.9473 198.893L66.0587 189.782L9.11216 132.835L0.000716696 141.947L-9.11073 151.058L47.8358 208.005L56.9473 198.893Z" fill="white" mask="url(#path-4-inside-2_307_1283)"/>
</svg>
