<svg width="115" height="116" viewBox="0 0 115 116" fill="none" xmlns="http://www.w3.org/2000/svg">
<rect x="52.2734" y="10.6543" width="10.4545" height="104.546" fill="#81D4FA"/>
<rect width="10.4545" height="104.545" transform="matrix(0.866024 0.500002 -0.499998 0.866026 76.4961 14.3436)" fill="#81D4FA"/>
<rect width="10.4545" height="104.545" transform="matrix(0.499998 0.866026 -0.866024 0.500002 95.6299 29.6503)" fill="#81D4FA"/>
<rect x="104.545" y="52.4728" width="10.4546" height="104.545" transform="rotate(90 104.545 52.4728)" fill="#81D4FA"/>
<rect width="10.4545" height="104.545" transform="matrix(-0.499998 0.866026 -0.866024 -0.500002 100.856 76.6958)" fill="#81D4FA"/>
<rect width="10.4545" height="104.545" transform="matrix(-0.866024 0.500002 -0.499998 -0.866026 85.5508 95.829)" fill="#81D4FA"/>
<rect x="62.7275" y="104.746" width="10.4545" height="104.546" transform="rotate(-180 62.7275 104.746)" fill="#81D4FA"/>
<rect width="10.4545" height="104.545" transform="matrix(-0.866024 -0.500002 0.499998 -0.866026 38.5049 101.056)" fill="#81D4FA"/>
<rect width="10.4545" height="104.545" transform="matrix(-0.499998 -0.866026 0.866024 -0.500002 19.3711 85.7496)" fill="#81D4FA"/>
<rect x="10.4561" y="62.927" width="10.4546" height="104.545" transform="rotate(-90 10.4561 62.927)" fill="#81D4FA"/>
<rect width="10.4545" height="104.545" transform="matrix(0.499998 -0.866026 0.866024 0.500002 14.1445 38.7039)" fill="#81D4FA"/>
<rect width="10.4545" height="104.545" transform="matrix(0.866024 -0.500002 0.499998 0.866026 29.4502 19.5707)" fill="#81D4FA"/>
<rect x="52.2734" y="10.6543" width="10.4545" height="104.546" fill="#81D4FA"/>
</svg>
