<svg width="56" height="36" viewBox="0 0 56 36" fill="none" xmlns="http://www.w3.org/2000/svg">
<path d="M52.646 11.9189L34.1958 8.40561C31.3876 7.95166 26.7624 6.13585 24.2846 7.4977C21.8067 8.85956 21.0782 11.4636 21.8067 13.4656C22.5352 15.4676 23.789 16.1228 24.2846 17.0307C24.7801 17.9386 25.2757 18.253 20.8156 19.9116C16.3555 21.5702 18.5005 26.5095 21.8067 25.5C24.1854 24.7737 30.6167 22.5785 33.535 21.5717L52.8314 13.8293C53.7584 13.4574 53.6273 12.1058 52.646 11.9189Z" stroke="#1E1E1E" stroke-width="4"/>
<path d="M10.1748 9.8855C12.0808 2.77291 19.3922 -1.44788 26.5049 0.457765L26.8359 0.550539C30.7478 1.70575 33.7455 4.51236 35.2715 7.99976H30.708C29.4935 6.25617 27.6818 4.91403 25.4688 4.32105C20.4901 2.98748 15.3733 5.94221 14.0391 10.9207L7.49609 35.3396H3.35449L10.1748 9.8855Z" fill="#1E1E1E"/>
<rect x="26.25" y="11.25" width="2.5" height="2.5" rx="1.25" fill="#1E1E1E" stroke="#1E1E1E" stroke-width="2.5"/>
<path d="M2 33.6729H21.5833" stroke="#1E1E1E" stroke-width="4" stroke-linecap="round"/>
<path d="M33.7361 22.382L32.618 20.1459L28.1459 22.382L29.2639 24.618L33.7361 22.382ZM37.3951 32.6254C37.1881 33.9905 38.1271 35.2649 39.4922 35.4718C40.8573 35.6787 42.1317 34.7398 42.3386 33.3746L37.3951 32.6254ZM31.5 23.5L29.2639 24.618C29.7414 25.573 30.5508 26.0791 31.0734 26.3437C31.6191 26.62 32.2222 26.813 32.7029 26.9571C33.8006 27.2863 34.66 27.4915 35.5105 27.8894C36.2894 28.2539 36.788 28.67 37.0902 29.214C37.3914 29.7563 37.6788 30.7531 37.3951 32.6254L39.8668 33L42.3386 33.3746C42.7369 30.7469 42.4444 28.5562 41.461 26.786C40.4786 25.0175 38.9877 23.9961 37.6295 23.3606C36.3427 22.7585 34.9171 22.4012 34.1392 22.1679C33.682 22.0308 33.4496 21.9425 33.3318 21.8828C33.1908 21.8115 33.5086 21.927 33.7361 22.382L31.5 23.5Z" fill="#1E1E1E"/>
</svg>
