<svg width="249" height="267" viewBox="0 0 249 267" fill="none" xmlns="http://www.w3.org/2000/svg">
<path d="M38.1016 12.4414C38.3211 12.4414 38.5093 12.5082 38.6406 12.6016C38.7381 12.6709 38.8456 12.7822 38.9219 12.9941L38.9531 13.0908L43.2314 28.6494C43.7733 30.62 45.2505 32.1863 47.165 32.8506L47.5537 32.9717L63.1123 37.25C63.388 37.3259 63.5224 37.4502 63.6016 37.5615C63.6949 37.6929 63.7607 37.882 63.7607 38.1016C63.7607 38.321 63.6949 38.5093 63.6016 38.6406C63.5323 38.7381 63.4208 38.8456 63.209 38.9219L63.1123 38.9531L47.5537 43.2314C45.583 43.7733 44.0158 45.2504 43.3516 47.165L43.2314 47.5537L38.9531 63.1123C38.8772 63.3883 38.752 63.5224 38.6406 63.6016C38.5093 63.6949 38.321 63.7607 38.1016 63.7607C37.882 63.7607 37.6929 63.6949 37.5615 63.6016C37.4641 63.5323 37.3565 63.4207 37.2803 63.209L37.25 63.1123L32.9717 47.5537C32.4298 45.5831 30.9526 44.0159 29.0381 43.3516L28.6494 43.2314L13.0908 38.9531C12.8146 38.8772 12.6807 38.752 12.6016 38.6406C12.5082 38.5093 12.4414 38.3211 12.4414 38.1016C12.4414 37.882 12.5082 37.6929 12.6016 37.5615C12.6709 37.4641 12.7824 37.3564 12.9941 37.2803L13.0908 37.25L28.6494 32.9717C30.6199 32.4298 32.1862 30.9525 32.8506 29.0381L32.9717 28.6494L37.25 13.0908C37.3258 12.815 37.4502 12.6808 37.5615 12.6016C37.6929 12.5082 37.882 12.4414 38.1016 12.4414Z" fill="#FFD54F" stroke="#1E1E1E" stroke-width="5.29927"/>
<path d="M216.271 77.4419C216.398 77.4419 216.496 77.4801 216.554 77.521C216.583 77.5417 216.627 77.579 216.666 77.6665L216.703 77.772L220.302 90.8599C220.779 92.5965 222.081 93.9774 223.769 94.563L224.111 94.6694L237.199 98.2681C237.366 98.3138 237.423 98.3786 237.45 98.4175C237.491 98.4752 237.529 98.5734 237.529 98.7007C237.529 98.8279 237.491 98.9262 237.45 98.9839C237.429 99.0131 237.392 99.0568 237.305 99.0962L237.199 99.1333L224.111 102.732C222.375 103.209 220.994 104.512 220.408 106.199L220.302 106.542L216.703 119.629C216.657 119.796 216.593 119.853 216.554 119.88C216.496 119.921 216.398 119.959 216.271 119.959C216.143 119.959 216.045 119.921 215.987 119.88C215.958 119.86 215.914 119.822 215.875 119.735L215.838 119.629L212.239 106.542C211.762 104.805 210.46 103.424 208.772 102.838L208.43 102.732L195.342 99.1333C195.175 99.0875 195.118 99.0227 195.091 98.9839C195.05 98.9262 195.012 98.828 195.012 98.7007C195.012 98.5734 195.05 98.4752 195.091 98.4175C195.112 98.3883 195.149 98.3446 195.236 98.3052L195.342 98.2681L208.43 94.6694C210.166 94.1919 211.547 92.8898 212.133 91.2026L212.239 90.8599L215.838 77.772C215.884 77.6055 215.948 77.5486 215.987 77.521C216.045 77.4801 216.143 77.4419 216.271 77.4419Z" fill="white" stroke="#1E1E1E" stroke-width="5"/>
<path d="M83.4605 96.8867C95.653 96.8867 100.273 100.273 102.693 102.33L93.9836 110.676L83.4605 128.819C78.3803 131.601 68.0747 140.213 67.4941 152.406C66.7683 167.646 80.1946 198.49 83.4605 207.199C86.0733 214.166 96.1609 219.537 102.693 228.246C105.958 236.592 93.9111 245.954 90.7178 248.566C87.5245 251.179 84.9119 258.364 88.9034 262.718C92.895 267.073 119.747 262.718 132.811 264.533C145.874 266.347 155.236 264.678 168.009 266.71C183.975 269.25 173.089 254.372 173.089 251.107C173.089 247.841 177.081 237.68 182.887 228.246C188.693 218.811 196.676 173.452 192.684 158.575C188.693 143.697 169.824 137.165 166.558 128.819C163.945 122.142 161.478 116.482 166.558 110.676C169.824 110.676 171.565 117.933 174.178 119.385C177.444 121.199 183.975 116.844 182.887 110.676C182.016 105.741 173.815 92.4112 169.824 86.3633C169.461 82.7347 166.993 73.3001 160.026 64.5912C151.317 53.7051 128.093 60.5996 121.925 64.5912C116.99 67.7845 94.2256 72.8162 83.4605 73.3C74.0259 75.3563 54.5035 78.8883 51.8908 89.6293C48.625 103.055 68.22 96.8867 83.4605 96.8867Z" fill="white"/>
<path d="M154.774 73.2936C143.842 61.4752 125.351 68.3693 117.472 73.2936C111.563 76.9868 110.455 81.0495 110.455 87.6974C110.455 93.3422 115.257 98.2848 117.472 99.5158C107.747 103.332 88.4435 119.016 89.0344 151.222C89.7731 191.478 106.762 221.394 108.609 225.456C110.455 229.519 113.041 235.428 112.302 240.229C111.711 244.07 113.779 247.246 114.887 248.354C117.349 248.354 122.422 247.616 123.012 244.661C123.751 240.968 129.66 232.473 134.462 232.473C139.263 232.473 139.632 235.797 142.956 244.661C145.615 251.752 151.943 249.093 154.774 246.877C157.729 241.706 164.155 228.189 166.224 215.484C168.809 199.603 166.962 193.325 160.314 171.534C154.996 154.102 154.405 138.172 154.774 132.386C155.882 127.708 158.542 117.17 160.314 112.442C162.53 106.533 168.44 88.0667 154.774 73.2936Z" fill="white" stroke="#1E1E1E" stroke-width="5" stroke-linecap="square"/>
<path d="M122.446 71.987C118.091 71.597 113.134 72.0681 109.658 72.6511L108.983 72.7683L108.928 72.779L108.873 72.7917C103.232 74.1407 89.5845 77.0421 79.9856 77.9148L78.8147 78.0339C73.0173 78.6814 68.1388 80.1272 64.4515 81.7204C62.4863 82.5696 60.8381 83.4697 59.5589 84.3288C58.3329 85.1523 57.2806 86.0476 56.6868 86.9382L56.5061 87.2331C56.1052 87.9524 55.8651 88.8784 56.2229 89.8591C56.5968 90.8828 57.4347 91.417 57.9886 91.6794C59.1016 92.2066 60.5006 92.3191 61.3352 92.3191H61.4388L61.5423 92.3083C65.9416 91.8571 78.595 91.9352 93.6712 95.9099L95.137 96.3074C114.69 101.739 131.477 101.928 136.42 101.579L136.862 101.544C139.004 101.349 141.071 100.843 142.473 99.7214C143.221 99.1231 143.827 98.3077 144.064 97.2673C144.297 96.2396 144.119 95.2171 143.719 94.2829L143.543 93.9109C143.11 93.072 142.506 92.43 141.749 91.9538C140.948 91.4498 140.05 91.1799 139.235 90.9822C137.484 90.5578 135.756 90.3517 133.299 89.4744L132.982 89.3552C131.462 88.7572 130.979 88.134 130.835 87.8611C130.814 87.8214 130.799 87.7836 130.786 87.7497C132.444 86.2463 133.589 83.1063 132.773 78.4802C132.407 76.0983 130.795 74.5403 128.916 73.5915C127.063 72.656 124.754 72.1939 122.446 71.987ZM117.455 82.1863C117.954 79.7228 119.979 78.0542 121.978 78.4587C123.977 78.8634 125.193 81.1885 124.695 83.6521C124.196 86.1155 122.171 87.7841 120.172 87.3796C118.173 86.975 116.957 84.6499 117.455 82.1863Z" fill="#1E1E1E"/>
<path d="M158.468 129.801C155.218 127.141 154.652 128.693 154.405 129.801C154.036 131.647 152.559 136.005 152.559 138.664C152.559 141.324 151.081 146.42 150.343 148.636C148.989 152.206 146.28 161.563 146.28 170.427C146.28 181.506 154.775 193.325 159.945 204.035C165.116 214.746 159.945 222.502 159.945 231.365C159.945 240.229 163.269 243.553 166.224 243.923C169.178 244.292 170.656 239.491 171.025 238.013C171.394 236.536 186.906 200.342 188.014 177.444C189.122 154.545 174.349 143.096 168.809 138.664C163.269 134.232 162.531 133.124 158.468 129.801Z" fill="#1E1E1E"/>
<path d="M93.5257 126.107C93.5257 124.215 91.7382 126.846 90.9995 128.693C89.8916 130.909 87.5702 132.017 85.7236 134.232C83.877 136.448 78.3371 142.727 76.8598 146.051C75.3825 149.375 76.1211 161.193 80.553 179.66C84.9849 198.126 100.127 216.962 102.343 219.178C104.559 221.394 106.834 223.24 106.834 221.394C106.834 219.547 101.974 201.45 97.1727 187.046C92.3715 172.642 89.0605 143.835 90.9071 137.556C91.892 134.602 93.5257 126.107 93.5257 126.107Z" fill="#1E1E1E"/>
<path d="M158.468 129.801C155.218 127.141 154.652 128.693 154.405 129.801C154.036 131.647 152.559 136.005 152.559 138.664C152.559 141.324 151.081 146.42 150.343 148.636C148.989 152.206 146.28 161.563 146.28 170.427C146.28 181.506 154.775 193.325 159.945 204.035C165.116 214.746 159.945 222.502 159.945 231.365C159.945 240.229 163.269 243.553 166.224 243.923C169.178 244.292 170.656 239.491 171.025 238.013C171.394 236.536 186.906 200.342 188.014 177.444C189.122 154.545 174.349 143.096 168.809 138.664C163.269 134.232 162.531 133.124 158.468 129.801Z" stroke="#1E1E1E" stroke-width="1.01779"/>
<path d="M93.5257 126.107C93.5257 124.215 91.7382 126.846 90.9995 128.693C89.8916 130.909 87.5702 132.017 85.7236 134.232C83.877 136.448 78.3371 142.727 76.8598 146.051C75.3825 149.375 76.1211 161.193 80.553 179.66C84.9849 198.126 100.127 216.962 102.343 219.178C104.559 221.394 106.834 223.24 106.834 221.394C106.834 219.547 101.974 201.45 97.1727 187.046C92.3715 172.642 89.0605 143.835 90.9071 137.556C91.892 134.602 93.5257 126.107 93.5257 126.107Z" stroke="#1E1E1E" stroke-width="1.01779"/>
<path d="M158.468 245.769C155.809 241.042 151.943 240.845 150.342 241.337C147.596 241.337 144.315 244.947 141.479 248.355C138.212 252.28 134.461 255.002 135.569 257.957C136.737 261.069 145.172 259.804 149.235 258.696C153.297 257.588 159.945 260.173 166.224 259.804C171.246 259.508 169.055 255.741 167.332 253.894C165.485 253.156 161.127 250.497 158.468 245.769Z" fill="#D2232A"/>
<path d="M123.751 246.508C122.865 242.667 120.181 241.46 118.95 241.337H114.149C111.563 241.337 109.347 242.815 108.609 243.923C107.87 245.031 98.2676 253.894 95.313 255.372C92.3584 256.849 94.5743 259.434 96.421 258.696C98.2676 257.957 113.41 257.957 120.427 258.696C127.444 259.434 126.336 257.957 126.336 255.372C126.336 252.786 123.751 250.57 123.751 246.508Z" fill="#D2232A"/>
<path d="M158.468 245.769C155.809 241.042 151.943 240.845 150.342 241.337C147.596 241.337 144.315 244.947 141.479 248.355C138.212 252.28 134.461 255.002 135.569 257.957C136.737 261.069 145.172 259.804 149.235 258.696C153.297 257.588 159.945 260.173 166.224 259.804C171.246 259.508 169.055 255.741 167.332 253.894C165.485 253.156 161.127 250.497 158.468 245.769Z" stroke="#1E1E1E" stroke-width="5"/>
<path d="M123.751 246.508C122.865 242.667 120.181 241.46 118.95 241.337H114.149C111.563 241.337 109.347 242.815 108.609 243.923C107.87 245.031 98.2676 253.894 95.313 255.372C92.3584 256.849 94.5743 259.434 96.421 258.696C98.2676 257.957 113.41 257.957 120.427 258.696C127.444 259.434 126.336 257.957 126.336 255.372C126.336 252.786 123.751 250.57 123.751 246.508Z" stroke="#1E1E1E" stroke-width="5"/>
</svg>
