<svg width="110" height="104" viewBox="0 0 110 104" fill="none" xmlns="http://www.w3.org/2000/svg">
<path d="M87.6829 10.2724C79.3148 0.0479917 63.8251 4.77681 57.1263 8.41928C52.1022 11.1511 50.9928 14.4241 50.6625 19.8698C50.3821 24.4938 54.0695 28.7812 55.8236 29.8997C47.6671 32.5428 31.0752 44.4318 29.9593 70.8427C29.4666 82.5054 29.9593 91.2212 55.8236 91.0236C77.3914 90.8588 84.7473 102.505 87.6829 87.0054C90.4663 72.3095 84.1572 63.4005 84.7473 58.679C85.8873 54.9019 88.5891 46.4015 90.2762 42.617C92.385 37.8864 98.143 23.0529 87.6829 10.2724Z" fill="white" stroke="#1E1E1E" stroke-width="5" stroke-linecap="square"/>
<path d="M61.3202 7.2345C57.7311 6.69244 53.6127 6.8343 50.7165 7.14127L50.154 7.205L50.0989 7.21143L50.0445 7.22085C45.3603 8.04496 34.0568 9.74026 26.1776 9.97743L25.2047 10.0163C20.3869 10.2606 16.283 11.2105 13.1501 12.3445C11.4807 12.9488 10.0655 13.6136 8.95276 14.2668C7.89511 14.8878 6.93804 15.5981 6.36353 16.3561L6.18467 16.6114C5.78203 17.2411 5.49629 18.0963 5.78042 19.0504C6.0757 20.0416 6.8333 20.5824 7.30939 20.8444C8.26628 21.3709 9.47144 21.5371 10.1725 21.5797L10.2768 21.586L10.3808 21.5815C13.9616 21.4324 24.279 22.1182 36.3907 26.1096L37.568 26.5068C52.847 31.7662 66.2495 32.8686 70.8223 32.8968L71.6172 32.8883C73.402 32.8345 75.2098 32.5196 76.5035 31.6075C77.1997 31.1166 77.7957 30.4153 78.0687 29.4806C78.3379 28.5583 78.2279 27.6314 77.9274 26.7933L77.7924 26.4544C77.4529 25.6867 76.9479 25.0793 76.2986 24.6135C75.6179 24.1254 74.8495 23.8472 74.1816 23.6418C72.7287 23.1949 71.377 22.955 69.4308 22.1239L69.186 22.0151C68.2985 21.602 67.924 21.2226 67.7706 21.0106C69.2106 19.6883 70.1897 17.0915 69.7651 13.3859L69.7631 13.3858C69.5651 11.2668 68.2251 9.82301 66.6706 8.91596C65.1417 8.02397 63.2207 7.52159 61.3202 7.2345ZM56.6701 15.7029C57.2009 13.7096 58.9429 12.443 60.5604 12.8737C62.1779 13.3043 63.0594 15.2693 62.5288 17.2626C61.9981 19.2559 60.256 20.5234 58.6385 20.0928C57.0209 19.6621 56.1394 17.6963 56.6701 15.7029Z" fill="#1E1E1E"/>
<path d="M87.9008 55.7445C85.3705 53.4047 84.8296 54.6473 84.5728 55.5427C84.1785 57.037 82.2071 59.0431 81.1502 61.7118C80.0933 64.3806 79.6599 66.6085 79.4218 70.5339C79.0252 77.0735 80.6822 78.5709 82.8551 83.8694C84.9882 89.0706 78.2861 89.2608 72.4401 92.1881C66.5941 95.1154 66.842 100.165 69.244 100.614L69.2927 100.624C71.7657 101.086 80.7157 102.761 89.9172 100.248C96.9106 98.3379 103.996 94.4002 104.554 85.1853C105.244 73.817 100.25 67.425 95.9316 63.5192C91.6136 59.6135 91.0636 58.6692 87.9008 55.7445Z" fill="#1E1E1E"/>
<path d="M34.2909 49.4568C34.3849 47.907 32.79 49.9731 32.0932 51.4491C31.0754 53.2093 29.1188 54.0016 27.496 55.7251C25.8732 57.4486 21.9676 61.6983 20.5923 64.3478C16.438 72.3509 16.0959 81.8303 22.8514 88.5053C25.6602 91.2805 42.0632 97.3459 45.2644 97.54C48.4656 97.7342 50.0961 95.4463 47.4085 91.7032C44.7209 87.96 41.3846 85.5312 34.3921 80.0352C31.1126 77.4576 31.1134 67.6042 33.5974 60.8929C35.2226 56.5019 34.2909 49.4568 34.2909 49.4568Z" fill="#1E1E1E"/>
<path d="M87.9008 55.7445C85.3705 53.4047 84.8296 54.6473 84.5728 55.5427C84.1785 57.037 82.2071 59.0431 81.1502 61.7118C80.0933 64.3806 79.6599 66.6085 79.4218 70.5339C79.0252 77.0735 80.6822 78.5709 82.8551 83.8694C84.9882 89.0706 78.2861 89.2608 72.4401 92.1881C66.5941 95.1154 66.842 100.165 69.244 100.614L69.2927 100.624C71.7657 101.086 80.7157 102.761 89.9172 100.248C96.9106 98.3379 103.996 94.4002 104.554 85.1853C105.244 73.817 100.25 67.425 95.9316 63.5192C91.6136 59.6135 91.0636 58.6692 87.9008 55.7445Z" stroke="#1E1E1E" stroke-width="1.01779"/>
<path d="M34.2909 49.4568C34.3849 47.907 32.79 49.9731 32.0932 51.4491C31.0754 53.2093 29.1188 54.0016 27.496 55.7251C25.8732 57.4486 21.9676 61.6983 20.5923 64.3478C16.438 72.3509 16.0959 81.8303 22.8514 88.5053C25.6602 91.2805 42.0632 97.3459 45.2644 97.54C48.4656 97.7342 50.0961 95.4463 47.4085 91.7032C44.7209 87.96 41.3846 85.5312 34.3921 80.0352C31.1126 77.4576 31.1134 67.6042 33.5974 60.8929C35.2226 56.5019 34.2909 49.4568 34.2909 49.4568Z" stroke="#1E1E1E" stroke-width="1.01779"/>
</svg>
