<svg width="168" height="168" viewBox="0 0 168 168" fill="none" xmlns="http://www.w3.org/2000/svg">
<circle cx="84" cy="84" r="82" fill="#D2232A" stroke="#1E1E1E" stroke-width="4"/>
<mask id="mask0_307_1374" style="mask-type:alpha" maskUnits="userSpaceOnUse" x="4" y="4" width="160" height="160">
<circle cx="84" cy="84" r="80" fill="#D2232A"/>
</mask>
<g mask="url(#mask0_307_1374)">
<path d="M59.6318 45.6868C70.5418 33.9385 88.9953 40.7917 96.8584 45.6868C102.756 49.3581 103.861 53.3966 103.861 60.005C103.861 65.6163 99.0698 70.5295 96.8584 71.7533C106.564 75.547 125.829 91.138 125.239 123.152C124.502 163.17 107.547 192.907 105.704 196.946C103.861 200.984 101.281 206.858 102.018 211.631C102.608 215.449 100.544 218.607 99.4383 219.708C96.9811 219.708 91.9193 218.974 91.3296 216.037C90.5924 212.365 84.6951 203.921 79.9036 203.921C75.1121 203.921 74.7435 207.226 71.4263 216.037C68.7725 223.086 62.4575 220.442 59.6318 218.24C56.6831 213.1 50.2698 199.663 48.2057 187.033C45.6257 171.246 47.4686 165.005 54.1031 143.344C59.4107 126.016 60.0004 110.18 59.6318 104.428C58.526 99.7778 55.8723 89.3023 54.1031 84.603C51.8916 78.7288 45.9943 60.3721 59.6318 45.6868Z" fill="white" stroke="#1E1E1E" stroke-width="5" stroke-linecap="square"/>
<path d="M91.8954 44.3756C96.2408 43.9879 101.188 44.4563 104.657 45.0357L105.331 45.1529L105.386 45.1627L105.439 45.1754C111.069 46.5164 124.69 49.4007 134.269 50.2682L135.438 50.3863C141.223 51.0299 146.092 52.4676 149.771 54.0514C151.732 54.8954 153.377 55.79 154.654 56.6441C155.878 57.4627 156.929 58.3536 157.523 59.2408L157.704 59.5348C158.105 60.2523 158.347 61.1788 157.987 62.1607C157.612 63.184 156.772 63.7159 156.221 63.9762C155.11 64.4999 153.715 64.6109 152.883 64.6109H152.779L152.676 64.6002C148.284 64.1517 135.657 64.2302 120.611 68.1813L119.148 68.5758C99.6348 73.9749 82.8817 74.1631 77.9491 73.816L77.5087 73.7809C75.3714 73.5873 73.3085 73.0843 71.9091 71.9693C71.1621 71.3741 70.5545 70.5614 70.3173 69.5221C70.083 68.4952 70.2625 67.4746 70.663 66.5436C71.1023 65.5225 71.7682 64.7646 72.6317 64.2232C73.4314 63.722 74.3277 63.4549 75.1415 63.2584C76.8881 62.8366 78.6129 62.6314 81.0643 61.7594L81.3827 61.6402C82.8996 61.0454 83.3804 60.4264 83.5214 60.1588C83.5394 60.1245 83.5537 60.0919 83.5653 60.0621C81.9119 58.5628 80.7713 55.4382 81.5858 50.8395C81.9518 48.4638 83.5644 46.9129 85.4384 45.9703C87.2874 45.0403 89.5916 44.5812 91.8954 44.3756ZM96.8759 54.527C96.3783 52.0779 94.3574 50.4188 92.3622 50.8209C90.3673 51.2233 89.1538 53.5342 89.6512 55.983C90.1487 58.432 92.1689 60.091 94.1639 59.6891C96.1591 59.2869 97.3734 56.976 96.8759 54.527Z" fill="#1E1E1E"/>
<path d="M55.9458 101.858C59.1893 99.2147 59.7544 100.757 60.0001 101.858C60.3687 103.694 61.8431 108.026 61.8431 110.669C61.8431 113.313 63.3174 118.379 64.0546 120.582C65.406 124.131 68.109 133.432 68.109 142.243C68.109 153.257 59.6316 165.005 54.4715 175.652C49.3114 186.299 54.4715 194.009 54.4715 202.82C54.4715 211.631 51.1543 214.935 48.2056 215.302C45.257 215.67 43.7827 210.897 43.4141 209.428C43.0455 207.96 27.5651 171.981 26.4594 149.218C25.3536 126.456 40.0968 115.075 45.6255 110.669C51.1542 106.264 51.8914 105.162 55.9458 101.858Z" fill="#1E1E1E"/>
<path d="M120.757 98.1868C120.757 96.3062 122.541 98.9211 123.278 100.757C124.384 102.96 126.7 104.061 128.543 106.264C130.386 108.467 135.915 114.708 137.389 118.012C138.863 121.316 138.126 133.064 133.703 151.421C129.28 169.778 114.169 188.502 111.957 190.704C109.746 192.907 107.475 194.743 107.475 192.907C107.475 191.072 112.326 173.082 117.117 158.764C121.909 144.446 125.213 115.809 123.37 109.568C122.387 106.631 120.757 98.1868 120.757 98.1868Z" fill="#1E1E1E"/>
<path d="M55.9458 101.858C59.1893 99.2147 59.7544 100.757 60.0001 101.858C60.3687 103.694 61.8431 108.026 61.8431 110.669C61.8431 113.313 63.3174 118.379 64.0546 120.582C65.406 124.131 68.109 133.432 68.109 142.243C68.109 153.257 59.6316 165.005 54.4715 175.652C49.3114 186.299 54.4715 194.009 54.4715 202.82C54.4715 211.631 51.1543 214.935 48.2056 215.302C45.257 215.67 43.7827 210.897 43.4141 209.428C43.0455 207.96 27.5651 171.981 26.4594 149.218C25.3536 126.456 40.0968 115.075 45.6255 110.669C51.1542 106.264 51.8914 105.162 55.9458 101.858Z" stroke="#1E1E1E" stroke-width="1.01779"/>
<path d="M120.757 98.1868C120.757 96.3062 122.541 98.9211 123.278 100.757C124.384 102.96 126.7 104.061 128.543 106.264C130.386 108.467 135.915 114.708 137.389 118.012C138.863 121.316 138.126 133.064 133.703 151.421C129.28 169.778 114.169 188.502 111.957 190.704C109.746 192.907 107.475 194.743 107.475 192.907C107.475 191.072 112.326 173.082 117.117 158.764C121.909 144.446 125.213 115.809 123.37 109.568C122.387 106.631 120.757 98.1868 120.757 98.1868Z" stroke="#1E1E1E" stroke-width="1.01779"/>
<path d="M92.3745 46.5295C93.2242 46.4697 94.3623 46.9199 95.48 48.3898C96.5816 49.8386 97.4389 52.0379 97.6246 54.65C97.8102 57.2619 97.2725 59.5589 96.3869 61.1477C95.4882 62.7598 94.4252 63.3663 93.5756 63.4263C92.7259 63.4862 91.5878 63.035 90.4699 61.565C89.3684 60.1163 88.5112 57.9178 88.3254 55.3058C88.1398 52.6937 88.6774 50.396 89.5631 48.8071C90.4619 47.195 91.5248 46.5894 92.3745 46.5295Z" fill="white" stroke="#00A0E9" stroke-width="5.08896"/>
<path d="M105.241 47.4971C106.37 46.703 106.642 45.1436 105.848 44.0141C105.054 42.8846 103.494 42.6128 102.365 43.4069L105.241 47.4971ZM45.5672 69.9177L43.5356 68.4608L45.5672 69.9177ZM37.2451 83.2602C36.909 84.5993 37.7222 85.9574 39.0613 86.2935C40.4005 86.6297 41.7586 85.8165 42.0947 84.4773L37.2451 83.2602ZM97.537 49.8576L98.9749 51.9027L105.241 47.4971L103.803 45.452L102.365 43.4069L96.099 47.8125L97.537 49.8576ZM45.5672 69.9177L43.5356 68.4608C41.4665 71.3462 38.7757 77.1618 37.2451 83.2602L39.6699 83.8688L42.0947 84.4773C43.5128 78.8274 45.9821 73.6291 47.5988 71.3746L45.5672 69.9177ZM86.4796 54.2632L85.9195 51.8268C80.9151 52.9771 72.1645 54.5717 63.9747 57.0352C59.8546 58.2745 55.7615 59.7643 52.226 61.5878C48.7222 63.3949 45.5646 65.6313 43.5356 68.4608L45.5672 69.9177L47.5988 71.3746C48.966 69.468 51.3288 67.6764 54.5179 66.0315C57.6754 64.403 61.448 63.0166 65.415 61.8233C73.3995 59.4215 81.7088 57.9251 87.0396 56.6997L86.4796 54.2632Z" fill="#00A0E9"/>
<circle cx="45.2317" cy="80.8213" r="3.62137" fill="#1E1E1E"/>
</g>
</svg>
