<svg width="83" height="102" viewBox="0 0 83 102" fill="none" xmlns="http://www.w3.org/2000/svg">
<path d="M7.8 8.19999C7.8 5.93333 8.5 4.06666 9.9 2.59999C11.3667 1.13333 13.2333 0.399993 15.5 0.399993H25.2V7.6H18.3C16.5 7.6 15.6 8.6 15.6 10.6V42.6C15.6 44.8667 14.8667 46.7333 13.4 48.2C12 49.6667 10.1333 50.4 7.8 50.4H6.6V51.6H7.8C10.1333 51.6 12 52.3333 13.4 53.8C14.8667 55.2667 15.6 57.1333 15.6 59.4V91.4C15.6 93.4 16.5 94.4 18.3 94.4H25.2V101.6H15.5C13.2333 101.6 11.3667 100.867 9.9 99.4C8.5 97.9333 7.8 96.0667 7.8 93.8V59.3C7.8 57.3667 6.9 56.4 5.1 56.4H2.98023e-07V45.6H5.1C6.9 45.6 7.8 44.6333 7.8 42.7V8.19999ZM74.6305 42.7C74.6305 44.6333 75.5305 45.6 77.3305 45.6H82.4305V56.4H77.3305C75.5305 56.4 74.6305 57.3667 74.6305 59.3V93.8C74.6305 96.0667 73.8971 97.9333 72.4305 99.4C71.0305 100.867 69.1971 101.6 66.9305 101.6H57.2305V94.4H64.1305C65.9305 94.4 66.8305 93.4 66.8305 91.4V59.4C66.8305 57.1333 67.5305 55.2667 68.9305 53.8C70.3971 52.3333 72.2971 51.6 74.6305 51.6H75.8305V50.4H74.6305C72.2971 50.4 70.3971 49.6667 68.9305 48.2C67.5305 46.7333 66.8305 44.8667 66.8305 42.6V10.6C66.8305 8.6 65.9305 7.6 64.1305 7.6H57.2305V0.399993H66.9305C69.1971 0.399993 71.0305 1.13333 72.4305 2.59999C73.8971 4.06666 74.6305 5.93333 74.6305 8.19999V42.7Z" fill="white"/>
</svg>
