<svg width="155" height="19" viewBox="0 0 155 19" fill="none" xmlns="http://www.w3.org/2000/svg">
<path d="M62.4648 2.67947L68.9686 12.6528C70.3634 14.7918 68.6186 17.5843 66.0847 17.2685L53.751 15.7312C53.584 15.7104 53.4155 15.7037 53.2473 15.7111L21.409 17.1204C17.9334 17.2743 17.026 12.3803 20.3258 11.278L47.1409 2.31995C47.3793 2.24029 47.6269 2.19092 47.8777 2.173L59.7382 1.3258C60.8255 1.24813 61.8694 1.76638 62.4648 2.67947Z" fill="#E53935"/>
<path d="M93.0352 1.67947L86.5032 11.6961C85.1131 13.8278 86.8416 16.6132 89.3688 16.314L102.755 14.7289C102.918 14.7096 103.082 14.7037 103.246 14.7113L133.456 16.1004C136.923 16.2598 137.847 11.3853 134.562 10.2643L108.368 1.32544C108.124 1.24215 107.87 1.19068 107.613 1.1723L95.7618 0.325799C94.6745 0.248132 93.6306 0.76638 93.0352 1.67947Z" fill="#E53935"/>
</svg>
