<svg width="161" height="162" viewBox="0 0 161 162" fill="none" xmlns="http://www.w3.org/2000/svg">
<path d="M80.0959 15.5536C82.3357 16.8468 84.0825 19.2222 85.1234 22.8518C86.1698 26.5007 86.4379 31.2288 85.8193 36.7909C84.5832 47.9054 79.8709 61.7676 71.8603 75.6424C63.8495 89.5175 54.2004 100.53 45.1929 107.158C40.6855 110.474 36.4569 112.606 32.7738 113.524C29.11 114.437 26.179 114.113 23.9392 112.82C21.6996 111.527 19.9539 109.151 18.9131 105.521C17.8668 101.873 17.5982 97.145 18.2167 91.5832C19.4527 80.4686 24.1654 66.6059 32.1762 52.7308C40.1869 38.856 49.8357 27.8439 58.8431 21.2161C63.3508 17.8994 67.5794 15.7676 71.2627 14.8493C74.9263 13.936 77.8562 14.2607 80.0959 15.5536Z" stroke="#4FC3F7" stroke-width="6"/>
<path d="M98.9954 26.4653C101.235 27.7584 102.982 30.1338 104.023 33.7634C105.069 37.4123 105.337 42.1405 104.719 47.7025C103.483 58.817 98.7703 72.6792 90.7597 86.5541C82.7489 100.429 73.0998 111.442 64.0923 118.07C59.5849 121.386 55.3563 123.517 51.6732 124.436C48.0094 125.349 45.0784 125.025 42.8386 123.732C40.599 122.438 38.8534 120.062 37.8125 116.433C36.7662 112.784 36.4976 108.057 37.1161 102.495C38.3522 91.3802 43.0648 77.5175 51.0756 63.6424C59.0863 49.7676 68.7351 38.7555 77.7426 32.1278C82.2502 28.811 86.4788 26.6792 90.1621 25.7609C93.8257 24.8476 96.7556 25.1723 98.9954 26.4653Z" stroke="#4FC3F7" stroke-width="6"/>
<path d="M117.895 37.3769C120.135 38.67 121.881 41.0454 122.922 44.675C123.969 48.3239 124.237 53.0521 123.618 58.6141C122.382 69.7286 117.67 83.5908 109.659 97.4657C101.648 111.341 91.9992 122.353 82.9917 128.981C78.4843 132.298 74.2558 134.429 70.5726 135.347C66.9089 136.261 63.9778 135.936 61.738 134.643C59.4984 133.35 57.7528 130.974 56.712 127.345C55.6656 123.696 55.397 118.968 56.0155 113.406C57.2516 102.292 61.9643 88.4291 69.975 74.5541C77.9857 60.6792 87.6346 49.6671 96.642 43.0394C101.15 39.7227 105.378 37.5908 109.062 36.6726C112.725 35.7592 115.655 36.0839 117.895 37.3769Z" stroke="#4FC3F7" stroke-width="6"/>
<path d="M136.794 48.2885C139.034 49.5816 140.781 51.957 141.822 55.5866C142.868 59.2356 143.136 63.9637 142.518 69.5257C141.281 80.6402 136.569 94.5024 128.559 108.377C120.548 122.252 110.899 133.265 101.891 139.893C97.3837 143.209 93.1552 145.34 89.472 146.259C85.8083 147.172 82.8772 146.848 80.6375 145.555C78.3978 144.262 76.6522 141.886 75.6114 138.256C74.5651 134.607 74.2964 129.88 74.9149 124.318C76.151 113.203 80.8637 99.3407 88.8744 85.4657C96.8851 71.5908 106.534 60.5788 115.541 53.951C120.049 50.6343 124.278 48.5024 127.961 47.5842C131.625 46.6709 134.554 46.9955 136.794 48.2885Z" stroke="#4FC3F7" stroke-width="6"/>
</svg>
