<svg width="50" height="50" viewBox="0 0 50 50" fill="none" xmlns="http://www.w3.org/2000/svg">
<path d="M38.75 33.125H16.851L9.27886 5H4.375" stroke="#1E1E1E" stroke-width="4" stroke-linecap="round" stroke-linejoin="round"/>
<path d="M15.3365 27.4998H40.9135L45.625 9.99985H10.625" stroke="#1E1E1E" stroke-width="4" stroke-linecap="round" stroke-linejoin="round"/>
<path d="M17.7508 38.4375C18.7556 37.8574 19.9935 37.8574 20.9983 38.4375C22.0032 39.0176 22.6221 40.0898 22.6221 41.25C22.6221 42.4103 22.0032 43.4824 20.9983 44.0625C19.9935 44.6426 18.7556 44.6426 17.7508 44.0625C16.7459 43.4824 16.127 42.4103 16.127 41.25C16.127 40.0898 16.7459 39.0176 17.7508 38.4375Z" stroke="#1E1E1E" stroke-width="4" stroke-linecap="round" stroke-linejoin="round"/>
<path d="M34.0008 38.4375C35.0056 37.8574 36.2435 37.8574 37.2483 38.4375C38.2532 39.0176 38.8721 40.0898 38.8721 41.25C38.8721 42.4103 38.2532 43.4824 37.2483 44.0625C36.2435 44.6426 35.0056 44.6426 34.0008 44.0625C32.9959 43.4824 32.377 42.4103 32.377 41.25C32.377 40.0898 32.9959 39.0176 34.0008 38.4375Z" stroke="#1E1E1E" stroke-width="4" stroke-linecap="round" stroke-linejoin="round"/>
</svg>
