<svg width="50" height="50" viewBox="0 0 50 50" fill="none" xmlns="http://www.w3.org/2000/svg">
<path d="M16.7113 7.8737C11.5236 10.372 7.7558 15.0966 6.47454 20.7102C5.19328 26.3237 6.53798 32.2153 10.128 36.717C13.718 41.2187 19.1626 43.8407 24.9205 43.8407C30.6784 43.8407 36.123 41.2187 39.713 36.717C43.303 32.2153 44.6478 26.3237 43.3665 20.7102C42.0852 15.0966 38.3175 10.372 33.1297 7.8737C27.942 5.37543 21.899 5.37543 16.7113 7.8737Z" stroke="white" stroke-width="4" stroke-linecap="round" stroke-linejoin="round"/>
<path d="M19.6709 20.4203C19.6709 21.2488 18.9993 21.9203 18.1709 21.9203C17.3425 21.9203 16.6709 21.2488 16.6709 20.4203C16.6709 19.5919 17.3425 18.9203 18.1709 18.9203C18.9993 18.9203 19.6709 19.5919 19.6709 20.4203Z" stroke="white" stroke-width="4" stroke-linecap="round" stroke-linejoin="round"/>
<path d="M33.1709 20.4203C33.1709 21.2488 32.4993 21.9203 31.6709 21.9203C30.8425 21.9203 30.1709 21.2488 30.1709 20.4203C30.1709 19.5919 30.8425 18.9203 31.6709 18.9203C32.4993 18.9203 33.1709 19.5919 33.1709 20.4203Z" stroke="white" stroke-width="4" stroke-linecap="round" stroke-linejoin="round"/>
<path d="M32.8757 32.8752C30.7659 34.985 27.9045 36.1702 24.9208 36.1702C21.9371 36.1702 19.0756 34.985 16.9658 32.8752" stroke="white" stroke-width="4" stroke-linecap="round" stroke-linejoin="round"/>
</svg>
