<svg width="100" height="450" viewBox="0 0 100 450" fill="none" xmlns="http://www.w3.org/2000/svg">
<mask id="path-1-inside-1_307_1621" fill="white">
<path d="M80 -8.74228e-07C91.0457 -3.91405e-07 100 8.95431 100 20L100 430C100 441.046 91.0457 450 80 450L20 450C8.9543 450 3.60946e-06 441.046 4.09229e-06 430L2.2014e-05 20C2.24968e-05 8.9543 8.95433 -3.97973e-06 20 -3.49691e-06L80 -8.74228e-07Z"/>
</mask>
<path d="M80 -8.74228e-07C91.0457 -3.91405e-07 100 8.95431 100 20L100 430C100 441.046 91.0457 450 80 450L20 450C8.9543 450 3.60946e-06 441.046 4.09229e-06 430L2.2014e-05 20C2.24968e-05 8.9543 8.95433 -3.97973e-06 20 -3.49691e-06L80 -8.74228e-07Z" fill="#D2232A"/>
<path d="M3.12988 13.0127C2.45113 15.035 2.05769 17.212 2.00586 19.4834L2 20L2 26.0293L-2 26.0293L-2 22C-2 18.3593 -1.1144 14.9258 0.451171 11.9014L1.51758 12.3447L2.44141 12.7275L3.12988 13.0127ZM2 50.1475L-2 50.1475L-2 38.0879L2 38.0879L2 50.1475ZM2 74.2646L-2 74.2646L-2 62.2061L2 62.2061L2 74.2646ZM2 98.3828L-2 98.3828L-2 86.3232L2 86.3232L2 98.3828ZM1.99999 122.5L-2.00001 122.5L-2 110.441L2 110.441L1.99999 122.5ZM1.99999 146.617L-2.00001 146.617L-2.00001 134.559L1.99999 134.559L1.99999 146.617ZM1.99999 170.735L-2.00001 170.735L-2.00001 158.677L1.99999 158.677L1.99999 170.735ZM1.99999 194.853L-2.00001 194.853L-2.00001 182.794L1.99999 182.794L1.99999 194.853ZM1.99999 218.971L-2.00001 218.971L-2.00001 206.912L1.99999 206.912L1.99999 218.971ZM1.99999 243.088L-2.00001 243.088L-2.00001 231.029L1.99999 231.029L1.99999 243.088ZM1.99999 267.206L-2.00001 267.206L-2.00001 255.147L1.99999 255.147L1.99999 267.206ZM1.99999 291.323L-2.00001 291.323L-2.00001 279.265L1.99999 279.265L1.99999 291.323ZM1.99999 315.441L-2.00001 315.441L-2.00001 303.383L1.99999 303.383L1.99999 315.441ZM1.99999 339.559L-2.00001 339.559L-2.00001 327.5L1.99999 327.5L1.99999 339.559ZM1.99998 363.677L-2.00002 363.677L-2.00002 351.618L1.99998 351.618L1.99998 363.677ZM1.99998 387.794L-2.00002 387.794L-2.00002 375.735L1.99998 375.735L1.99998 387.794ZM1.99998 411.912L-2.00002 411.912L-2.00002 399.854L1.99998 399.854L1.99998 411.912ZM3.12986 436.986L1.51756 437.655L0.655254 438.013L0.451153 438.098C-1.11417 435.073 -2.00002 431.64 -2.00002 428L-2.00002 423.971L1.99998 423.971L1.99998 430C1.99998 432.458 2.4 434.811 3.12986 436.986ZM20 -3.49691e-06C17.3129 1.00745e-07 14.7637 0.65517 12.4736 1.82812L12.3447 1.51757L12.292 1.38964C14.6909 0.492084 17.2879 -8.54181e-07 20 -3.49691e-06ZM20 450C17.2877 450 14.691 449.507 12.292 448.609L12.3447 448.482L12.4736 448.171C14.7638 449.344 17.3127 450 20 450Z" fill="#1E1E1E" mask="url(#path-1-inside-1_307_1621)"/>
<path d="M39 50.1997L61.72 50.1997L61.72 56.5998L43.736 56.5997L43.736 70.2317L39 70.2317L39 50.1997ZM39 72.606L61.72 72.606L61.72 79.006L39 79.006L39 72.606ZM39 82.731L61.72 82.731L61.72 102.891L56.984 102.891L56.984 89.131L52.056 89.131L52.056 102.187L47.512 102.187L47.512 89.131L39 89.131L39 82.731ZM39 105.606L61.72 105.606L61.72 126.726L56.984 126.726L56.984 112.006L52.76 112.006L52.76 125.286L48.216 125.286L48.216 112.006L43.736 112.006L43.736 126.95L39 126.95L39 105.606ZM39 142.12L61.72 134.344L61.72 141.288L44.984 146.184L61.72 151.944L61.72 158.505L44.984 164.265L61.72 169.161L61.72 175.784L39 168.009L39 160.265L54.424 155.016L39 149.768L39 142.12ZM39 177.668L61.72 177.668L61.72 184.069L39 184.068L39 177.668ZM39 195.473L56.984 195.473L56.984 186.449L61.72 186.449L61.72 210.898L56.984 210.898L56.984 201.874L39 201.873L39 195.473ZM39 213.262L61.72 213.262L61.72 219.662L52.728 219.662L52.728 231.118L61.72 231.118L61.72 237.518L39 237.518L39 231.118L47.992 231.118L47.992 219.662L39 219.662L39 213.262ZM38.584 268.634C38.584 265.904 39.064 263.472 40.024 261.338C41.0053 259.226 42.3707 257.562 44.12 256.346C45.8907 255.152 47.9707 254.554 50.36 254.554C52.7493 254.554 54.8187 255.152 56.568 256.346C58.3173 257.562 59.672 259.226 60.632 261.339C61.592 263.472 62.072 265.904 62.072 268.635C62.072 271.024 61.7307 273.125 61.048 274.939C60.3653 276.752 59.4267 278.245 58.232 279.419C57.0587 280.592 55.736 281.381 54.264 281.787L52.888 276.058C53.9973 275.611 54.8613 275.013 55.48 274.266C56.12 273.52 56.568 272.667 56.824 271.707C57.08 270.768 57.208 269.776 57.208 268.731C57.208 267.323 56.9627 266.032 56.472 264.858C56.0027 263.685 55.288 262.746 54.328 262.042C53.368 261.36 52.152 261.018 50.68 261.018L50.04 261.018C48.5893 261.018 47.3733 261.36 46.392 262.042C45.432 262.746 44.7067 263.685 44.216 264.858C43.7467 266.032 43.512 267.322 43.512 268.73C43.512 269.776 43.64 270.768 43.896 271.706C44.152 272.667 44.5893 273.52 45.208 274.266C45.848 275.013 46.7227 275.61 47.832 276.058L46.456 281.786C44.984 281.381 43.6507 280.592 42.456 279.418C41.2827 278.245 40.344 276.752 39.64 274.938C38.936 273.125 38.584 271.024 38.584 268.634ZM39 284.293L61.72 284.293L61.72 290.694L52.728 290.693L52.728 302.15L61.72 302.15L61.72 308.55L39 308.55L39 302.15L47.992 302.15L47.992 290.693L39 290.693L39 284.293ZM38.616 323.974C38.616 321.5 38.936 319.366 39.576 317.574C40.2373 315.804 41.2613 314.438 42.648 313.478C44.0347 312.518 45.848 312.038 48.088 312.038L61.72 312.038L61.72 318.438L48.376 318.438C47.3733 318.438 46.5093 318.598 45.784 318.918C45.0587 319.238 44.504 319.804 44.12 320.614C43.736 321.425 43.544 322.577 43.544 324.07C43.544 325.542 43.736 326.684 44.12 327.494C44.504 328.326 45.0587 328.902 45.784 329.222C46.5093 329.564 47.3733 329.734 48.376 329.734L61.72 329.734L61.72 335.974L48.088 335.974C45.848 335.974 44.0347 335.494 42.648 334.534C41.2613 333.574 40.2373 332.198 39.576 330.406C38.936 328.636 38.616 326.492 38.616 323.974ZM39 339.45L61.72 339.45L61.72 349.114L45.944 356.73L45.944 356.762L61.72 364.378L61.72 374.106L39 374.106L39 367.706L55.832 367.706L55.832 367.674L39 359.482L39 353.626L55.832 345.434L55.832 345.402L39 345.402L39 339.45ZM38.616 389.345C38.616 387.361 38.808 385.515 39.192 383.809C39.5973 382.102 40.2587 380.619 41.176 379.361C42.1147 378.102 43.3733 377.131 44.952 376.449L46.648 382.177C45.88 382.603 45.2507 383.105 44.76 383.681C44.2907 384.278 43.9387 385.057 43.704 386.017C43.4907 386.977 43.384 388.214 43.384 389.729C43.384 391.585 43.5867 392.993 43.992 393.953C44.3973 394.913 44.92 395.393 45.56 395.393C46.0507 395.393 46.4667 395.158 46.808 394.689C47.1493 394.219 47.3947 393.323 47.544 392.001L48.312 385.825C48.6747 382.966 49.3787 380.833 50.424 379.425C51.4693 378.017 52.92 377.313 54.776 377.313C56.4187 377.313 57.7733 377.803 58.84 378.785C59.928 379.766 60.7387 381.153 61.272 382.945C61.8267 384.758 62.104 386.87 62.104 389.281C62.104 391.03 61.9227 392.694 61.56 394.273C61.1973 395.873 60.5787 397.291 59.704 398.529C58.8293 399.787 57.6027 400.779 56.024 401.505L54.328 396.033C55.5227 395.393 56.3227 394.486 56.728 393.313C57.1333 392.161 57.336 390.646 57.336 388.769C57.336 387.19 57.1653 385.921 56.824 384.961C56.504 384.022 56.0347 383.553 55.416 383.553C54.8827 383.553 54.456 383.809 54.136 384.321C53.816 384.854 53.5813 385.718 53.432 386.913L52.6 393.697C52.2587 396.47 51.544 398.497 50.456 399.777C49.368 401.057 47.928 401.697 46.136 401.697C44.472 401.697 43.0747 401.185 41.944 400.161C40.8347 399.137 40.0027 397.697 39.448 395.841C38.8933 393.985 38.616 391.819 38.616 389.345Z" fill="white"/>
</svg>
