<svg width="100" height="472" viewBox="0 0 100 472" fill="none" xmlns="http://www.w3.org/2000/svg">
<mask id="path-1-inside-1_307_1436" fill="white">
<path d="M80 -8.74228e-07C91.0457 -3.91405e-07 100 8.95431 100 20L100 452C100 463.046 91.0457 472 80 472L20 472C8.9543 472 2.64781e-06 463.046 3.13064e-06 452L2.2014e-05 20C2.24968e-05 8.9543 8.95433 -3.97973e-06 20 -3.49691e-06L80 -8.74228e-07Z"/>
</mask>
<path d="M80 -8.74228e-07C91.0457 -3.91405e-07 100 8.95431 100 20L100 452C100 463.046 91.0457 472 80 472L20 472C8.9543 472 2.64781e-06 463.046 3.13064e-06 452L2.2014e-05 20C2.24968e-05 8.9543 8.95433 -3.97973e-06 20 -3.49691e-06L80 -8.74228e-07Z" fill="#D2232A"/>
<path d="M3.12988 13.0127C2.45113 15.035 2.05769 17.212 2.00586 19.4834L2 20L2 26L-2 26L-2 22C-2 18.3593 -1.1144 14.9258 0.451171 11.9014L1.51758 12.3447L2.44141 12.7275L3.12988 13.0127ZM2 50L-2 50L-2 38L2 38L2 50ZM2 74L-2 74L-2 62L2 62L2 74ZM2 98L-2 98L-2 86L2 86L2 98ZM1.99999 122L-2.00001 122L-2 110L2 110L1.99999 122ZM1.99999 146L-2.00001 146L-2.00001 134L1.99999 134L1.99999 146ZM1.99999 170L-2.00001 170L-2.00001 158L1.99999 158L1.99999 170ZM1.99999 194L-2.00001 194L-2.00001 182L1.99999 182L1.99999 194ZM1.99999 218L-2.00001 218L-2.00001 206L1.99999 206L1.99999 218ZM1.99999 242L-2.00001 242L-2.00001 230L1.99999 230L1.99999 242ZM1.99999 266L-2.00001 266L-2.00001 254L1.99999 254L1.99999 266ZM1.99999 290L-2.00001 290L-2.00001 278L1.99999 278L1.99999 290ZM1.99999 314L-2.00001 314L-2.00001 302L1.99999 302L1.99999 314ZM1.99999 338L-2.00001 338L-2.00001 326L1.99999 326L1.99999 338ZM1.99998 362L-2.00002 362L-2.00002 350L1.99998 350L1.99998 362ZM1.99998 386L-2.00002 386L-2.00002 374L1.99998 374L1.99998 386ZM1.99998 410L-2.00002 410L-2.00002 398L1.99998 398L1.99998 410ZM1.99998 434L-2.00002 434L-2.00002 422L1.99998 422L1.99998 434ZM3.12986 458.986L1.51756 459.655L0.655253 460.013L0.451152 460.098C-1.11417 457.073 -2.00002 453.64 -2.00002 450L-2.00002 446L1.99998 446L1.99998 452C1.99998 454.458 2.4 456.811 3.12986 458.986ZM20 -3.49691e-06C17.3129 1.00745e-07 14.7637 0.65517 12.4736 1.82812L12.3447 1.51757L12.292 1.38964C14.6909 0.492084 17.2879 -8.54181e-07 20 -3.49691e-06ZM20 472C17.2877 472 14.691 471.507 12.292 470.609L12.3447 470.482L12.4736 470.171C14.7638 471.344 17.3127 472 20 472Z" fill="#1E1E1E" mask="url(#path-1-inside-1_307_1436)"/>
<path d="M39 34.1372L61.72 34.1372L61.72 47.5132C61.72 50.5639 61.0587 52.9213 59.736 54.5853C58.4347 56.2706 56.4827 57.1133 53.88 57.1132C51.3627 57.1132 49.4533 56.2706 48.152 54.5852C46.8507 52.9212 46.2 50.5639 46.2 47.5132L46.2 40.5372L39 40.5372L39 34.1372ZM56.984 47.1933L56.984 40.5372L50.776 40.5372L50.776 47.1932C50.776 48.4519 51.0107 49.3693 51.48 49.9453C51.9707 50.5213 52.6747 50.8093 53.592 50.8093L53.976 50.8093C55 50.8093 55.7573 50.5213 56.248 49.9453C56.7387 49.3693 56.984 48.4519 56.984 47.1933ZM39 59.5435L61.72 59.5435L61.72 73.5595C61.72 76.5888 61.0693 78.8608 59.768 80.3755C58.488 81.9115 56.6213 82.6795 54.168 82.6795C52.3973 82.6795 50.9253 82.2528 49.752 81.3995C48.5787 80.5675 47.704 79.3515 47.128 77.7515L39 82.9035L39 75.6075L46.296 71.1915L46.296 65.9435L39 65.9435L39 59.5435ZM56.984 72.9835L56.984 65.9435L50.872 65.9435L50.872 72.9835C50.872 75.1808 51.8427 76.2795 53.784 76.2795L54.104 76.2795C56.024 76.2795 56.984 75.1808 56.984 72.9835ZM38.616 97.9045C38.616 95.0245 39.1173 92.5712 40.12 90.5445C41.144 88.5392 42.5413 87.0032 44.312 85.9365C46.0827 84.8698 48.088 84.3365 50.328 84.3365C52.5893 84.3365 54.6053 84.8592 56.376 85.9045C58.1467 86.9712 59.544 88.5178 60.568 90.5445C61.592 92.5712 62.104 95.0245 62.104 97.9045C62.104 100.806 61.592 103.259 60.568 105.265C59.5653 107.291 58.1787 108.827 56.408 109.873C54.6373 110.939 52.6107 111.473 50.328 111.473C48.088 111.473 46.0827 110.939 44.312 109.873C42.5413 108.827 41.144 107.291 40.12 105.265C39.1173 103.259 38.616 100.806 38.616 97.9045ZM43.48 97.9045C43.48 100.08 44.0453 101.808 45.176 103.088C46.328 104.368 47.9173 105.009 49.944 105.009L50.776 105.009C52.8027 105.009 54.3813 104.369 55.512 103.089C56.664 101.809 57.24 100.081 57.24 97.9045C57.24 95.7285 56.664 94.0005 55.512 92.7205C54.3813 91.4405 52.8027 90.8005 50.776 90.8005L49.944 90.8005C47.9173 90.8005 46.328 91.4405 45.176 92.7205C44.0453 94.0005 43.48 95.7285 43.48 97.9045ZM39 114.356L61.72 114.356L61.72 126.612C61.72 129.62 61.2293 132.105 60.248 134.068C59.2667 136.052 57.912 137.535 56.184 138.516C54.4773 139.497 52.5253 139.988 50.328 139.988C48.152 139.988 46.2107 139.497 44.504 138.516C42.7973 137.535 41.4533 136.052 40.472 134.068C39.4907 132.105 39 129.62 39 126.612L39 114.356ZM43.736 120.756L43.736 126.164C43.736 128.66 44.2907 130.505 45.4 131.7C46.5093 132.916 48.024 133.524 49.944 133.524L50.776 133.524C52.7387 133.524 54.264 132.916 55.352 131.7C56.44 130.505 56.984 128.66 56.984 126.164L56.984 120.756L43.736 120.756ZM38.616 154.568C38.616 152.093 38.936 149.96 39.576 148.168C40.2373 146.397 41.2613 145.032 42.648 144.072C44.0347 143.112 45.848 142.632 48.088 142.632L61.72 142.632L61.72 149.032L48.376 149.032C47.3733 149.032 46.5093 149.192 45.784 149.512C45.0587 149.832 44.504 150.397 44.12 151.208C43.736 152.019 43.544 153.171 43.544 154.664C43.544 156.136 43.736 157.277 44.12 158.088C44.504 158.92 45.0587 159.496 45.784 159.816C46.5093 160.157 47.3733 160.328 48.376 160.328L61.72 160.328L61.72 166.568L48.088 166.568C45.848 166.568 44.0347 166.088 42.648 165.128C41.2613 164.168 40.2373 162.792 39.576 161C38.936 159.229 38.616 157.085 38.616 154.568ZM38.584 183.259C38.584 180.529 39.064 178.097 40.024 175.963C41.0053 173.851 42.3707 172.187 44.12 170.971C45.8907 169.777 47.9707 169.179 50.36 169.179C52.7493 169.179 54.8187 169.777 56.568 170.971C58.3173 172.187 59.672 173.851 60.632 175.964C61.592 178.097 62.072 180.529 62.072 183.26C62.072 185.649 61.7307 187.75 61.048 189.564C60.3653 191.377 59.4267 192.87 58.232 194.044C57.0587 195.217 55.736 196.006 54.264 196.412L52.888 190.683C53.9973 190.236 54.8613 189.638 55.48 188.891C56.12 188.145 56.568 187.292 56.824 186.332C57.08 185.393 57.208 184.401 57.208 183.356C57.208 181.948 56.9627 180.657 56.472 179.483C56.0027 178.31 55.288 177.371 54.328 176.667C53.368 175.985 52.152 175.643 50.68 175.643L50.04 175.643C48.5893 175.643 47.3733 175.985 46.392 176.667C45.432 177.371 44.7067 178.31 44.216 179.483C43.7467 180.657 43.512 181.947 43.512 183.355C43.512 184.401 43.64 185.393 43.896 186.331C44.152 187.292 44.5893 188.145 45.208 188.891C45.848 189.638 46.7227 190.235 47.832 190.683L46.456 196.411C44.984 196.006 43.6507 195.217 42.456 194.043C41.2827 192.87 40.344 191.377 39.64 189.563C38.936 187.75 38.584 185.649 38.584 183.259ZM39 205.442L56.984 205.442L56.984 196.418L61.72 196.418L61.72 220.866L56.984 220.866L56.984 211.842L39 211.842L39 205.442ZM39 229.418L61.72 229.418L61.72 235.819L52.728 235.818L52.728 247.275L61.72 247.275L61.72 253.675L39 253.675L39 247.275L47.992 247.275L47.992 235.818L39 235.818L39 229.418ZM39 257.387L61.72 257.387L61.72 263.787L39 263.787L39 257.387ZM38.584 280.312C38.584 277.646 39.064 275.278 40.024 273.208C41.0053 271.16 42.3707 269.55 44.12 268.376C45.8907 267.224 47.9707 266.648 50.36 266.648C52.7493 266.648 54.8187 267.256 56.568 268.472C58.3173 269.688 59.672 271.363 60.632 273.496C61.592 275.63 62.072 278.072 62.072 280.824C62.072 283.235 61.752 285.326 61.112 287.096C60.4933 288.888 59.6293 290.339 58.52 291.448C57.432 292.579 56.184 293.347 54.776 293.752L53.4 288.024C54.4453 287.598 55.2347 287.022 55.768 286.296C56.3227 285.592 56.696 284.782 56.888 283.864C57.1013 282.947 57.208 281.966 57.208 280.92C57.208 279.47 56.9627 278.147 56.472 276.952C56.0027 275.779 55.288 274.84 54.328 274.136C53.368 273.454 52.152 273.112 50.68 273.112L50.04 273.112C48.5893 273.112 47.3627 273.464 46.36 274.168C45.3787 274.894 44.632 275.886 44.12 277.144C43.6293 278.424 43.384 279.875 43.384 281.496C43.384 282.819 43.5333 283.992 43.832 285.016C44.152 286.04 44.6 286.84 45.176 287.416C45.752 288.014 46.456 288.312 47.288 288.312L47.512 288.312L47.512 280.12L51.928 280.12L51.928 294.2L39 294.2L39 289.112L41.24 288.856C40.3227 287.768 39.6507 286.478 39.224 284.984C38.7973 283.491 38.584 281.934 38.584 280.312ZM39 297.575L61.72 297.575L61.72 303.975L52.728 303.975L52.728 315.431L61.72 315.431L61.72 321.831L39 321.831L39 315.431L47.992 315.431L47.992 303.975L39 303.975L39 297.575ZM39 325.543L61.72 325.543L61.72 331.944L43.736 331.943L43.736 345.575L39 345.575L39 325.543ZM39 347.95L61.72 347.95L61.72 354.35L39 354.35L39 347.95ZM38.584 370.875C38.584 368.208 39.064 365.84 40.024 363.771C41.0053 361.723 42.3707 360.112 44.12 358.939C45.8907 357.787 47.9707 357.211 50.36 357.211C52.7493 357.211 54.8187 357.819 56.568 359.035C58.3173 360.251 59.672 361.925 60.632 364.059C61.592 366.192 62.072 368.635 62.072 371.387C62.072 373.797 61.752 375.888 61.112 377.659C60.4933 379.451 59.6293 380.901 58.52 382.011C57.432 383.141 56.184 383.909 54.776 384.315L53.4 378.587C54.4453 378.16 55.2347 377.584 55.768 376.859C56.3227 376.155 56.696 375.344 56.888 374.427C57.1013 373.509 57.208 372.528 57.208 371.483C57.208 370.032 56.9627 368.709 56.472 367.515C56.0027 366.341 55.288 365.403 54.328 364.699C53.368 364.016 52.152 363.675 50.68 363.675L50.04 363.675C48.5893 363.675 47.3627 364.027 46.36 364.731C45.3787 365.456 44.632 366.448 44.12 367.707C43.6293 368.987 43.384 370.437 43.384 372.059C43.384 373.381 43.5333 374.555 43.832 375.579C44.152 376.603 44.6 377.403 45.176 377.979C45.752 378.576 46.456 378.875 47.288 378.875L47.512 378.875L47.512 370.683L51.928 370.683L51.928 384.763L39 384.763L39 379.675L41.24 379.419C40.3227 378.331 39.6507 377.04 39.224 375.547C38.7973 374.053 38.584 372.496 38.584 370.875ZM39 388.137L61.72 388.137L61.72 394.537L52.728 394.537L52.728 405.993L61.72 405.993L61.72 412.393L39 412.393L39 405.993L47.992 405.993L47.992 394.537L39 394.537L39 388.137ZM39 423.786L56.984 423.786L56.984 414.762L61.72 414.762L61.72 439.21L56.984 439.21L56.984 430.186L39 430.186L39 423.786Z" fill="white"/>
</svg>
