<svg width="419" height="445" viewBox="0 0 419 445" fill="none" xmlns="http://www.w3.org/2000/svg">
<path d="M73.8625 4.74265L75.4842 3.57224L73.1434 0.328699L71.5217 1.49911L73.8625 4.74265ZM404.817 444.613C405.708 445.266 406.96 445.073 407.613 444.183L418.256 429.666C418.909 428.776 418.716 427.524 417.826 426.871C416.935 426.218 415.683 426.41 415.03 427.301L405.569 440.205L392.666 430.744C391.775 430.091 390.524 430.283 389.871 431.174C389.217 432.065 389.41 433.317 390.301 433.97L404.817 444.613ZM72.6921 3.12088L71.5217 1.49911C67.3466 4.51216 63.0769 7.37074 58.7817 10.2332C54.4959 13.0895 50.1804 15.9523 45.9627 18.9454C37.5227 24.9347 29.3895 31.5029 22.4099 39.8028C8.37445 56.4933 -0.744898 79.8835 0.923876 118.969L2.92206 118.884L4.92024 118.798C3.28436 80.4834 12.2137 58.1428 25.4713 42.3773C32.1382 34.4492 39.9626 28.1081 48.2776 22.2075C52.4374 19.2555 56.6988 16.4282 61 13.5618C65.2918 10.7016 69.6193 7.80486 73.8625 4.74265L72.6921 3.12088ZM2.92206 118.884L0.923876 118.969C1.77538 138.912 9.57359 151.625 21.1716 161.042C32.6023 170.323 47.7548 176.403 63.068 183.228C78.5016 190.107 94.3097 197.815 107.719 210.371C121.083 222.884 132.155 240.301 137.905 266.736L139.859 266.311L141.813 265.886C135.899 238.693 124.435 220.543 110.453 207.451C96.5167 194.402 80.168 186.47 64.6964 179.574C49.1043 172.625 34.6028 166.795 23.693 157.937C12.9503 149.214 5.72105 137.555 4.92024 118.798L2.92206 118.884ZM139.859 266.311L137.905 266.736C143.916 294.376 162.835 311.257 187.666 323.034C212.409 334.771 243.36 341.595 273.841 348.979C304.459 356.397 334.64 364.385 358.395 378.377C382.039 392.304 399.223 412.121 404.023 443.304L406 443L407.976 442.696C402.957 410.09 384.879 389.335 360.425 374.931C336.083 360.592 305.33 352.492 274.783 345.092C244.1 337.659 213.656 330.935 189.38 319.42C165.19 307.947 147.465 291.875 141.813 265.886L139.859 266.311Z" fill="#FFD54F"/>
</svg>
