<svg width="624" height="438" viewBox="0 0 624 438" fill="none" xmlns="http://www.w3.org/2000/svg">
<path d="M554.294 1.00125L552.295 0.930562L552.153 4.92806L554.152 4.99875L554.294 1.00125ZM621.973 124.193L619.973 124.16L621.973 124.193ZM8.17655 436.822C8.63031 437.829 9.81454 438.277 10.8216 437.823L27.2326 430.429C28.2397 429.975 28.6883 428.791 28.2345 427.784C27.7807 426.777 26.5965 426.328 25.5894 426.782L11.0018 433.355L4.42901 418.767C3.97525 417.76 2.79102 417.312 1.78396 417.766C0.776896 418.219 0.328355 419.404 0.782114 420.411L8.17655 436.822ZM554.223 3L554.152 4.99875C559.476 5.18703 566.343 7.71787 573.708 12.8197C581.041 17.8991 588.738 25.4398 595.707 35.426C609.636 55.3851 620.62 85.0609 619.973 124.16L621.973 124.193L623.972 124.226C624.632 84.3258 613.42 53.8179 598.987 33.1369C591.776 22.8031 583.75 14.9096 575.986 9.5315C568.254 4.17589 560.649 1.22603 554.294 1.00125L554.223 3ZM621.973 124.193L619.973 124.16C619.405 158.473 601.716 180.781 574.16 195.225C546.467 209.742 508.886 216.25 468.984 218.663C429.123 221.073 387.185 219.387 350.883 217.667C314.719 215.953 283.898 214.183 266.638 216.518L266.907 218.5L267.175 220.482C283.966 218.21 314.263 219.936 350.694 221.663C386.988 223.383 429.124 225.08 469.226 222.655C509.286 220.233 547.558 213.686 576.017 198.768C604.613 183.779 623.376 160.271 623.972 124.226L621.973 124.193ZM266.907 218.5L266.638 216.518C232.52 221.135 185.545 229.054 138.257 259.27C90.9375 289.507 43.485 341.947 8.12966 435.292L10 436L11.8703 436.708C46.9647 344.053 93.9147 292.351 140.411 262.641C186.938 232.911 233.192 225.081 267.175 220.482L266.907 218.5Z" 
stroke="#FFD54F" stroke-width="4" stroke-linecap="round"
/>
</svg>
